<svg width="1920" height="830.0000000000001" xmlns="http://www.w3.org/2000/svg">
      <!-- Created with Method Draw - http://github.com/duopixel/Method-Draw/ -->

      <g>
            <title>Layer 1</title>
            <style transform="matrix(0.0244140625,0,0,0.0244140625,0,0) " type="text/css">.st0{fill:#024EFF;}
        .st1{fill:#FFFFFF;}
        .st2{fill:#FBBA00;}</style>
            <g id="svg_16">
                  <g id="svg_5">
                        <path id="svg_6" d="m-540482.965,-258371.86063c-25.33,-0.86 -45.67,-21.72 -45.67,-47.26c0,-25.54 20.34,-46.4 45.67,-47.26l0,-36.25c-45.38,0.87 -81.9,37.92 -81.9,83.51c0,45.59 36.52,82.64 81.9,83.51l0,-36.25z" class="st1" />
                        <circle id="svg_7" r="18.21" cy="-258396.50062" cx="-540446.425" class="st2" />
                        <circle id="svg_8" r="18.21" cy="-258446.12063" cx="-540446.425" class="st2" />
                        <g id="svg_9">
                              <circle id="svg_10" r="18.21" cy="-258272.87063" cx="-540446.865" class="st2" />
                              <path id="svg_11" d="m-540533.595,-258287.74063c2.96,2.63 4.44,6.6 4.44,11.91l0,20.37l-9.69,0l0,-4.44c-1.95,3.32 -5.57,4.98 -10.88,4.98c-2.74,0 -5.12,-0.46 -7.13,-1.39c-2.01,-0.93 -3.55,-2.21 -4.61,-3.85s-1.59,-3.49 -1.59,-5.57c0,-3.32 1.25,-5.93 3.75,-7.83c2.5,-1.9 6.36,-2.85 11.58,-2.85l8.23,0c0,-2.26 -0.69,-3.99 -2.06,-5.21c-1.37,-1.22 -3.43,-1.82 -6.17,-1.82c-1.9,0 -3.77,0.3 -5.61,0.9c-1.83,0.6 -3.39,1.4 -4.68,2.42l-3.71,-7.23c1.95,-1.37 4.28,-2.43 7,-3.18s5.52,-1.13 8.39,-1.13c5.53,-0.03 9.78,1.29 12.74,3.92zm-8.82,24.61c1.37,-0.82 2.34,-2.02 2.92,-3.62l0,-3.65l-7.1,0c-4.25,0 -6.37,1.39 -6.37,4.18c0,1.33 0.52,2.38 1.56,3.15c1.04,0.77 2.47,1.16 4.28,1.16c1.77,0.01 3.34,-0.4 4.71,-1.22z" class="st1" />
                              <path id="svg_12" d="m-540507.255,-258290.36063c2.1,-0.88 4.52,-1.33 7.26,-1.33l0,9.55c-1.15,-0.09 -1.92,-0.13 -2.32,-0.13c-2.96,0 -5.29,0.83 -6.97,2.49c-1.68,1.66 -2.52,4.15 -2.52,7.46l0,16.85l-10.35,0l0,-35.69l9.88,0l0,4.71c1.25,-1.72 2.92,-3.03 5.02,-3.91z" class="st1" />
                              <path id="svg_13" d="m-540468.365,-258257.19062c-1.02,0.75 -2.27,1.32 -3.75,1.69s-3.04,0.56 -4.68,0.56c-4.25,0 -7.53,-1.08 -9.85,-3.25c-2.32,-2.17 -3.48,-5.35 -3.48,-9.55l0,-14.66l-5.51,0l0,-7.96l5.51,0l0,-8.69l10.35,0l0,8.69l8.89,0l0,7.96l-8.89,0l0,14.53c0,1.5 0.39,2.66 1.16,3.48c0.77,0.82 1.87,1.23 3.28,1.23c1.64,0 3.03,-0.44 4.18,-1.33l2.79,7.3z" class="st1" />
                              <path id="svg_14" d="m-540416.885,-258256.03063c-2.83,-0.73 -5.09,-1.65 -6.77,-2.75l3.45,-7.43c1.59,1.02 3.52,1.85 5.77,2.49c2.26,0.64 4.47,0.96 6.63,0.96c4.38,0 6.57,-1.08 6.57,-3.25c0,-1.02 -0.6,-1.75 -1.79,-2.19s-3.03,-0.82 -5.51,-1.13c-2.92,-0.44 -5.33,-0.95 -7.23,-1.53c-1.9,-0.57 -3.55,-1.59 -4.94,-3.05c-1.39,-1.46 -2.09,-3.54 -2.09,-6.24c0,-2.26 0.65,-4.26 1.96,-6c1.3,-1.75 3.21,-3.11 5.71,-4.08c2.5,-0.97 5.45,-1.46 8.86,-1.46c2.52,0 5.03,0.28 7.53,0.83s4.57,1.32 6.2,2.29l-3.45,7.36c-3.14,-1.77 -6.57,-2.65 -10.28,-2.65c-2.21,0 -3.87,0.31 -4.98,0.93s-1.66,1.42 -1.66,2.39c0,1.11 0.6,1.88 1.79,2.32s3.1,0.86 5.7,1.26c2.92,0.49 5.31,1.01 7.17,1.56s3.47,1.56 4.84,3.02c1.37,1.46 2.06,3.49 2.06,6.1c0,2.21 -0.66,4.18 -1.99,5.9c-1.33,1.72 -3.26,3.06 -5.81,4.01c-2.54,0.95 -5.56,1.43 -9.05,1.43c-2.97,0 -5.86,-0.36 -8.69,-1.09z" class="st1" />
                              <path id="svg_15" d="m-540575.605,-258267.98062c-1.93,2.72 -5.1,4.51 -8.68,4.51c-5.87,0 -10.65,-4.78 -10.65,-10.65s4.78,-10.65 10.65,-10.65c3.58,0 6.75,1.78 8.68,4.51l7.24,-5.02c-3.52,-5.01 -9.33,-8.3 -15.92,-8.3c-10.75,0 -19.46,8.71 -19.46,19.46s8.71,19.46 19.46,19.46c6.59,0 12.41,-3.29 15.92,-8.3l-7.24,-5.02z" class="st1" />
                        </g>
                  </g>
            </g>
            <style transform="matrix(0.0334204090666026,0,0,0.0334204090666026,0,0) " type="text/css">.st0{fill:#024EFF;}
        .st1{fill:#FFFFFF;}
        .st2{fill:#FBBA00;}</style>
            <g stroke="null" id="svg_31">
                  <g stroke="null" transform="matrix(5.282953407148147,0,0,5.282953407148147,-150790.25453672957,-84697.33057402444) " id="svg_21">
                        <path stroke="null" id="svg_22" d="m28620.13645,16155.28797c-23.87,-0.81 -43.04,-20.47 -43.04,-44.54s19.17,-43.72 43.04,-44.54l0,-34.16c-42.77,0.82 -77.18,35.74 -77.18,78.7c0,42.96 34.41,77.88 77.18,78.7l0,-34.16z" class="st1" />
                        <circle stroke="null" id="svg_23" r="17.16" cy="16132.05797" cx="28654.57645" class="st2" />
                        <circle stroke="null" id="svg_24" r="17.16" cy="16085.30797" cx="28654.57645" class="st2" />
                        <path stroke="null" id="svg_25" d="m28772.01645,16094.93797c2.79,2.48 4.19,6.22 4.19,11.22l0,19.19l-9.13,0l0,-4.19c-1.83,3.13 -5.25,4.69 -10.25,4.69c-2.59,0 -4.83,-0.44 -6.72,-1.31c-1.9,-0.88 -3.34,-2.08 -4.35,-3.63c-1,-1.54 -1.5,-3.29 -1.5,-5.25c0,-3.13 1.18,-5.58 3.53,-7.38c2.35,-1.79 5.99,-2.69 10.91,-2.69l7.75,0c0,-2.13 -0.65,-3.76 -1.94,-4.91s-3.23,-1.72 -5.81,-1.72c-1.79,0 -3.55,0.28 -5.28,0.84s-3.2,1.32 -4.41,2.28l-3.5,-6.81c1.83,-1.29 4.03,-2.29 6.6,-3c2.56,-0.71 5.2,-1.06 7.91,-1.06c5.21,0.01 9.21,1.25 12,3.73zm-8.31,23.2c1.29,-0.77 2.21,-1.91 2.75,-3.41l0,-3.44l-6.69,0c-4,0 -6,1.31 -6,3.94c0,1.25 0.49,2.24 1.47,2.97s2.32,1.09 4.03,1.09c1.67,0 3.15,-0.38 4.44,-1.15z" class="st1" />
                        <path stroke="null" id="svg_26" d="m28796.83645,16092.46797c1.98,-0.83 4.26,-1.25 6.85,-1.25l0,9c-1.08,-0.08 -1.81,-0.12 -2.19,-0.12c-2.79,0 -4.98,0.78 -6.56,2.34s-2.38,3.91 -2.38,7.03l0,15.88l-9.75,0l0,-33.63l9.31,0l0,4.44c1.17,-1.62 2.74,-2.85 4.72,-3.69z" class="st1" />
                        <path stroke="null" id="svg_27" d="m28833.48645,16123.72797c-0.96,0.71 -2.14,1.24 -3.53,1.59c-1.4,0.35 -2.87,0.53 -4.41,0.53c-4,0 -7.1,-1.02 -9.28,-3.06c-2.19,-2.04 -3.28,-5.04 -3.28,-9l0,-13.82l-5.19,0l0,-7.5l5.19,0l0,-8.19l9.75,0l0,8.19l8.38,0l0,7.5l-8.38,0l0,13.69c0,1.42 0.36,2.51 1.09,3.28c0.73,0.77 1.76,1.16 3.09,1.16c1.54,0 2.85,-0.42 3.94,-1.25l2.63,6.88z" class="st1" />
                        <path stroke="null" id="svg_28" d="m28881.99645,16124.81797c-2.67,-0.69 -4.79,-1.55 -6.38,-2.59l3.25,-7c1.5,0.96 3.31,1.74 5.44,2.34s4.21,0.91 6.25,0.91c4.13,0 6.19,-1.02 6.19,-3.06c0,-0.96 -0.56,-1.65 -1.69,-2.06c-1.12,-0.42 -2.85,-0.77 -5.19,-1.06c-2.75,-0.42 -5.02,-0.9 -6.81,-1.44c-1.79,-0.54 -3.34,-1.5 -4.66,-2.88s-1.97,-3.33 -1.97,-5.88c0,-2.13 0.61,-4.01 1.84,-5.66c1.23,-1.65 3.02,-2.93 5.38,-3.84c2.35,-0.92 5.14,-1.38 8.35,-1.38c2.37,0 4.74,0.26 7.09,0.78c2.35,0.52 4.3,1.24 5.85,2.16l-3.25,6.94c-2.96,-1.67 -6.19,-2.5 -9.69,-2.5c-2.09,0 -3.65,0.29 -4.69,0.88c-1.04,0.58 -1.56,1.33 -1.56,2.25c0,1.04 0.56,1.77 1.69,2.19c1.13,0.42 2.92,0.81 5.38,1.19c2.75,0.46 5,0.95 6.75,1.47s3.27,1.47 4.56,2.84c1.29,1.38 1.94,3.29 1.94,5.75c0,2.08 -0.62,3.94 -1.87,5.56c-1.25,1.63 -3.07,2.89 -5.47,3.78c-2.4,0.9 -5.24,1.34 -8.53,1.34c-2.8,0.01 -5.53,-0.34 -8.2,-1.03z" class="st1" />
                        <path stroke="null" id="svg_29" d="m28732.43645,16113.55797c-1.82,2.56 -4.8,4.25 -8.18,4.25c-5.53,0 -10.03,-4.5 -10.03,-10.03c0,-5.53 4.5,-10.03 10.03,-10.03c3.38,0 6.36,1.68 8.18,4.25l6.83,-4.73c-3.32,-4.72 -8.8,-7.82 -15.01,-7.82c-10.13,0 -18.34,8.21 -18.34,18.34s8.21,18.34 18.34,18.34c6.21,0 11.69,-3.1 15.01,-7.82l-6.83,-4.75z" class="st1" />
                        <circle stroke="null" id="svg_30" r="17.16" cy="16108.95797" cx="28853.74645" class="st2" />
                  </g>
            </g>
      </g>
</svg>