<svg xmlns="http://www.w3.org/2000/svg" width="100" height="49.4" viewBox="0 0 100 49.4"><g fill="#FFF"><path d="M30.9 33.5c-1-1.8-3.3-2.9-5.6-2.9-5.1 0-9.1 3.2-9.1 9.3 0 6.2 3.8 9.4 9 9.4 2 0 4.7-1 5.7-3.1l.2 2.6h4.1V31.1h-4.1l-.2 2.4zm-5.1 11.8c-2.9 0-5.2-2-5.2-5.4 0-3.3 2.3-5.3 5.2-5.3 6.8 0 6.8 10.7 0 10.7zM74 30.8c-5.5 0-9 4.1-9 9.2s3.4 9.2 9.1 9.2c5.7 0 9.1-4.1 9.1-9.2s-3.7-9.2-9.2-9.2zm0 14.4c-3.1 0-4.7-2.5-4.7-5.2s1.6-5.3 4.7-5.2c2.9 0 4.7 2.5 4.7 5.2s-1.5 5.2-4.7 5.2zM92.6 37.9c-2.3-.1-3.3-.8-3.3-1.9 0-1.2 1.2-1.8 3.2-1.8 1.6 0 3.1.4 4.3 1.6l2.4-2.9c-2-1.8-4.1-2.3-6.8-2.3-3.2 0-7.4 1.4-7.4 5.5 0 4 3.9 5.2 7.2 5.5 2.5.2 3.5.7 3.5 1.9 0 1.3-1.5 2.1-3.1 2.1-1.9-.1-4.8-1.1-6-2.5l-2.1 3.1c2.6 2.7 5.3 3.2 8.1 3.2 5 0 7.5-2.7 7.5-5.8 0-4.7-4.2-5.5-7.5-5.7zM9.4 45.1c-2.7 0-5-1.8-5-5.2 0-3.1 2.1-5.2 5-5.2 1.2 0 2.5.5 3.5 1.4l2.7-2.9c-1.9-1.9-3.8-2.6-6.3-2.6C4.2 30.6 0 33.7 0 40s4.2 9.4 9.3 9.4c2.6 0 4.7-.8 6.7-2.8l-2.8-3c-1 1.1-2.4 1.5-3.8 1.5zM42.6 32.5l-.2-1.4h-3.9v17.7h4.1v-9.2c-.2-5 6.3-4.4 6.3-4.4v-4.1c.1 0-5-.1-6.3 1.4zM61 45c-1.4 0-2.3-.8-2.3-2.5v-7.3h4.9v-4.1h-4.8v-5l-4.4.4v4.6h-3.3v4.1h3.3v7.3c0 4.5 2.5 6.6 6.3 6.5 1.3-.1 2.4-.3 3.6-.8l-1.2-3.7c-.7.3-1.4.5-2.1.5z"/><path d="M99.1 28.5C91.1 16.1 71.8.1 49.7 0 27.5.1 8.2 16.1.3 28.5c8.2-10.1 27.6-19 49.4-19 21.8 0 41.2 8.9 49.4 19z"/></g></svg>